<?xml version="1.0" encoding="UTF-8"?>
<svg id="a" data-name="Capa 1" xmlns="http://www.w3.org/2000/svg" viewBox="0 0 175.11 181.13">
  <defs>
    <style>
      .h {
        fill: #585ea4;
      }

      .i {
        fill: #fff;
      }

      .j {
        fill: #0ae8c6;
      }
    </style>
  </defs>
  <g id="b" data-name="Imagotipos">
    <g id="c" data-name="Imagotipo">
      <g>
        <path class="h" d="M47.4,77.95c0-11.16,9.13-18.63,22.4-22,4.18-1.06,7.11-4.82,7.11-9.13h0c0-6.77-6.94-11.36-13.16-8.66-15.71,6.82-26.39,19.86-26.39,33.08,0,16.11,15.84,29.65,37.33,33.58-15.87-3.79-27.29-14.38-27.29-26.86Z"/>
        <path class="h" d="M98.2,46.82h0c0,4.31,2.93,8.06,7.11,9.13,13.27,3.37,22.4,10.85,22.4,22,0,12.48-11.43,23.08-27.29,26.86,21.49-3.93,37.33-17.47,37.33-33.58,0-13.22-10.68-26.25-26.39-33.08-6.21-2.7-13.16,1.89-13.16,8.66Z"/>
        <circle class="j" cx="87.55" cy="87.72" r="18.68"/>
      </g>
    </g>
    <g id="d" data-name="Imagotipo Monocromatico Claro">
      <g>
        <path class="j" d="M47.4,77.95c0-11.16,9.13-18.63,22.4-22,4.18-1.06,7.11-4.82,7.11-9.13h0c0-6.77-6.94-11.36-13.16-8.66-15.71,6.82-26.39,19.86-26.39,33.08,0,16.11,15.84,29.65,37.33,33.58-15.87-3.79-27.29-14.38-27.29-26.86Z"/>
        <path class="j" d="M98.2,46.82h0c0,4.31,2.93,8.06,7.11,9.13,13.27,3.37,22.4,10.85,22.4,22,0,12.48-11.43,23.08-27.29,26.86,21.49-3.93,37.33-17.47,37.33-33.58,0-13.22-10.68-26.25-26.39-33.08-6.21-2.7-13.16,1.89-13.16,8.66Z"/>
        <circle class="j" cx="87.55" cy="87.72" r="18.68"/>
      </g>
    </g>
    <g id="e" data-name="Imagotipo Monocromatico Oscuro">
      <g>
        <path class="h" d="M47.4,77.95c0-11.16,9.13-18.63,22.4-22,4.18-1.06,7.11-4.82,7.11-9.13h0c0-6.77-6.94-11.36-13.16-8.66-15.71,6.82-26.39,19.86-26.39,33.08,0,16.11,15.84,29.65,37.33,33.58-15.87-3.79-27.29-14.38-27.29-26.86Z"/>
        <path class="h" d="M98.2,46.82h0c0,4.31,2.93,8.06,7.11,9.13,13.27,3.37,22.4,10.85,22.4,22,0,12.48-11.43,23.08-27.29,26.86,21.49-3.93,37.33-17.47,37.33-33.58,0-13.22-10.68-26.25-26.39-33.08-6.21-2.7-13.16,1.89-13.16,8.66Z"/>
        <circle class="h" cx="87.55" cy="87.72" r="18.68"/>
      </g>
    </g>
    <g id="f" data-name="Imagotipo Acromatico">
      <g>
        <path d="M47.4,77.95c0-11.16,9.13-18.63,22.4-22,4.18-1.06,7.11-4.82,7.11-9.13h0c0-6.77-6.94-11.36-13.16-8.66-15.71,6.82-26.39,19.86-26.39,33.08,0,16.11,15.84,29.65,37.33,33.58-15.87-3.79-27.29-14.38-27.29-26.86Z"/>
        <path d="M98.2,46.82h0c0,4.31,2.93,8.06,7.11,9.13,13.27,3.37,22.4,10.85,22.4,22,0,12.48-11.43,23.08-27.29,26.86,21.49-3.93,37.33-17.47,37.33-33.58,0-13.22-10.68-26.25-26.39-33.08-6.21-2.7-13.16,1.89-13.16,8.66Z"/>
        <circle cx="87.55" cy="87.72" r="18.68"/>
      </g>
    </g>
    <g id="g" data-name="Imagotipo Negativo">
      <g>
        <path class="i" d="M47.4,77.95c0-11.16,9.13-18.63,22.4-22,4.18-1.06,7.11-4.82,7.11-9.13h0c0-6.77-6.94-11.36-13.16-8.66-15.71,6.82-26.39,19.86-26.39,33.08,0,16.11,15.84,29.65,37.33,33.58-15.87-3.79-27.29-14.38-27.29-26.86Z"/>
        <path class="i" d="M98.2,46.82h0c0,4.31,2.93,8.06,7.11,9.13,13.27,3.37,22.4,10.85,22.4,22,0,12.48-11.43,23.08-27.29,26.86,21.49-3.93,37.33-17.47,37.33-33.58,0-13.22-10.68-26.25-26.39-33.08-6.21-2.7-13.16,1.89-13.16,8.66Z"/>
        <circle class="i" cx="87.55" cy="87.72" r="18.68"/>
      </g>
    </g>
  </g>
</svg>