<?xml version="1.0" encoding="UTF-8"?>
<svg id="a" data-name="Capa 1" xmlns="http://www.w3.org/2000/svg" viewBox="0 0 175.11 181.13">
  <defs>
    <style>
      .d {
        fill: #585ea4;
      }

      .e {
        fill: #0ae8c6;
      }
    </style>
  </defs>
  <g id="b" data-name="Imagotipos">
    <g id="c" data-name="Imagotipo">
      <g>
        <path class="d" d="M47.4,77.95c0-11.16,9.13-18.63,22.4-22,4.18-1.06,7.11-4.82,7.11-9.13h0c0-6.77-6.94-11.36-13.16-8.66-15.71,6.82-26.39,19.86-26.39,33.08,0,16.11,15.84,29.65,37.33,33.58-15.87-3.79-27.29-14.38-27.29-26.86Z"/>
        <path class="d" d="M98.2,46.82h0c0,4.31,2.93,8.06,7.11,9.13,13.27,3.37,22.4,10.85,22.4,22,0,12.48-11.43,23.08-27.29,26.86,21.49-3.93,37.33-17.47,37.33-33.58,0-13.22-10.68-26.25-26.39-33.08-6.21-2.7-13.16,1.89-13.16,8.66Z"/>
        <circle class="e" cx="87.55" cy="87.72" r="18.68"/>
      </g>
      <g>
        <path class="d" d="M37.52,143.76v-18.67h12.32v2.44h-9.59v5.46h8.33v2.44h-8.33v8.33h-2.73Z"/>
        <path class="d" d="M64.77,143.76c-11.55.51-11.54-19.18,0-18.66,11.66-.56,11.63,19.2,0,18.66ZM64.77,141.26c8.07.35,8.06-14.01,0-13.66-8.01-.35-8.01,14.01,0,13.66Z"/>
        <path class="d" d="M89.41,143.76c-7.36.4-10.7-8.51-7.63-14.29,2.92-6.21,13.4-5.85,15.61.74l-2.54.91c-2.5-6.37-12.27-3.51-11.44,3.27-.84,6.79,8.92,9.68,11.44,3.29l2.54.88c-1.25,3.34-4.36,5.24-7.98,5.21Z"/>
        <path class="d" d="M116.65,143.76h2.97l-7.23-18.67h-2.12l-7.26,18.67h3l1.5-4.15h7.63l1.5,4.15ZM108.4,137.17l2.94-8.11,2.93,8.11h-5.87Z"/>
        <path class="d" d="M126.67,143.76v-18.67h2.73v16.23h8.22v2.44h-10.95Z"/>
      </g>
    </g>
  </g>
</svg>